<svg width="158" height="158" viewBox="0 0 158 158" fill="none" xmlns="http://www.w3.org/2000/svg">
<path d="M80.4589 131.787C73.1759 133.337 66.5112 133.281 60.4648 131.619C54.4323 130.022 49.3623 126.986 45.2548 122.511C41.1612 118.101 38.3742 112.419 36.8937 105.464C35.3435 98.1811 35.1844 91.1506 36.4165 84.3727C37.6486 77.5948 40.0723 71.4206 43.6875 65.8501C47.3544 60.2 52.0321 55.432 57.7206 51.5464C63.4092 47.6607 69.9606 44.9287 77.3748 43.3505C84.9859 41.7304 91.8544 41.7773 97.9804 43.4911C104.158 45.1253 109.301 48.18 113.408 52.6554C117.516 57.1307 120.282 62.7147 121.706 69.4072C122.544 73.3439 122.836 77.294 122.583 81.2574C122.381 85.1412 121.61 88.7689 120.27 92.1405C118.982 95.4325 117.076 98.2387 114.552 100.559C112.093 102.866 109.027 104.41 105.353 105.192C101.941 105.918 99.0575 105.743 96.7022 104.667C94.347 103.591 92.6276 101.797 91.5441 99.2838C90.2139 102.379 88.2073 105.035 85.5243 107.252C82.893 109.39 79.8714 110.822 76.4595 111.548C71.473 112.609 67.2876 111.957 63.9033 109.591C60.5052 107.16 58.2614 103.385 57.172 98.2671C56.4178 94.724 56.2493 91.1934 56.6664 87.6753C57.0695 84.0917 58.0157 80.8039 59.505 77.812C61.046 74.7406 63.0665 72.1501 65.5667 70.0404C68.1324 67.9168 71.1212 66.4919 74.5331 65.7656C80.6351 64.4668 85.1332 65.9441 88.0276 70.1976L87.8114 63.8651L98.1454 61.6654L99.1341 89.0264C99.2851 91.6691 99.7907 93.7219 100.651 95.1849C101.563 96.5683 103.134 97.0226 105.365 96.5477C107.267 96.1427 108.768 95.1374 109.867 93.5319C111.017 91.8467 111.821 89.8238 112.278 87.463C112.788 85.0227 113 82.4742 112.914 79.8176C112.881 77.0813 112.598 74.4665 112.068 71.9733C110.364 63.9685 106.497 58.2074 100.467 54.6899C94.4233 51.1068 86.9069 50.2719 77.9179 52.1853C72.0784 53.4283 66.9286 55.6562 62.4685 58.8689C58.0601 62.002 54.4238 65.8624 51.5595 70.45C48.7609 75.0237 46.8822 80.0531 45.9236 85.5383C45.0167 90.9438 45.1777 96.5336 46.4068 102.307C48.1945 110.706 52.0704 116.671 58.0346 120.202C64.0128 123.799 71.398 124.662 80.1901 122.791C83.1426 122.162 85.9996 121.245 88.7608 120.04C91.5877 118.821 94.0963 117.396 96.2865 115.764L100.092 123.493C94.4832 127.43 87.9388 130.195 80.4589 131.787ZM78.427 101.459C80.7891 100.956 82.8147 99.8388 84.5037 98.1076C86.1928 96.3763 87.4232 94.2626 88.195 91.7664C88.9528 89.2046 89.0971 86.4991 88.6277 83.6498C88.1821 80.5897 86.9813 78.1705 85.0253 76.3921C83.1349 74.5997 80.615 74.0387 77.4656 74.7091C74.8411 75.2678 72.7122 76.5439 71.079 78.5376C69.4458 80.5313 68.3369 82.8935 67.7522 85.6243C67.1535 88.2894 67.1545 91.0326 67.755 93.8539C68.3556 96.6753 69.5661 98.8181 71.3867 100.282C73.2589 101.667 75.6057 102.059 78.427 101.459Z" fill="#FF6914"/>
<path fill-rule="evenodd" clip-rule="evenodd" d="M75.9813 42.7111L53.54 44.2848L53.5305 44.1488C53.1735 38.0094 57.8218 32.7089 63.9734 32.2775C70.1704 31.8429 75.5464 36.5141 75.9813 42.7111Z" fill="#00AD84"/>
<path fill-rule="evenodd" clip-rule="evenodd" d="M85.8861 30.3002C85.2836 24.1874 79.8772 19.6759 73.7381 20.1984C73.7377 20.1984 73.7374 20.1985 73.737 20.1985L75.6449 42.6144L75.7237 42.6077C81.8236 42.0467 86.3494 36.7059 85.912 30.6051L85.8861 30.3002Z" fill="#00AD84"/>
</svg>
