<svg version="1.1" id="Layer_1" xmlns="http://www.w3.org/2000/svg" xmlns:xlink="http://www.w3.org/1999/xlink" x="0px" y="0px"
	 width="100%" viewBox="0 0 316 316" enable-background="new 0 0 316 316" xml:space="preserve">
<path fill="#000000" opacity="1.000000" stroke="none" 
	d="
M211.000000,317.000000 
	C140.666702,317.000000 70.833397,317.000000 1.000075,317.000000 
	C1.000050,211.666748 1.000050,106.333504 1.000025,1.000188 
	C106.333199,1.000125 211.666397,1.000125 316.999695,1.000063 
	C316.999817,106.333153 316.999817,211.666306 316.999908,316.999725 
	C281.833344,317.000000 246.666672,317.000000 211.000000,317.000000 
M154.251083,86.391075 
	C167.676208,83.796745 175.370499,72.940079 172.764984,58.566685 
	C170.841599,47.956276 159.846802,38.974754 148.020966,41.633030 
	C148.988220,53.011131 149.961899,64.464912 150.979507,76.435524 
	C140.351517,64.882385 130.340759,62.190861 119.961449,67.488152 
	C112.006981,71.547882 105.535316,82.569786 108.801659,89.946724 
	C110.635910,89.946724 112.618164,90.068695 114.581383,89.927010 
	C127.712189,88.979309 140.838928,87.975403 153.680252,87.715744 
	C149.938858,88.767929 146.173721,89.742928 142.459991,90.885078 
	C121.548676,97.316299 104.812302,109.832932 91.659378,126.999084 
	C80.327759,141.788208 73.922745,158.924713 72.172005,177.364532 
	C70.527863,194.681641 72.266281,212.001373 79.201836,228.121414 
	C86.036705,244.007462 97.590874,255.659561 114.041786,262.084198 
	C127.736618,267.432526 141.766876,268.135223 156.140854,266.028503 
	C171.647461,263.755859 186.023972,258.580505 199.178101,250.003738 
	C201.315857,248.609909 201.959473,247.395889 200.562286,244.985306 
	C198.129868,240.788666 196.032990,236.397552 193.720657,231.943863 
	C177.476624,243.280945 159.753845,248.651184 140.374908,247.928619 
	C128.776352,247.496170 118.404045,243.352615 109.863243,235.326736 
	C96.649231,222.909393 93.333145,206.463211 92.102386,189.462418 
	C91.254044,177.743988 93.693893,166.371429 98.003059,155.423904 
	C105.575729,136.185333 118.701225,121.843079 137.035645,112.605843 
	C149.922974,106.112961 163.863495,103.352081 178.376114,104.000198 
	C194.130020,104.703758 207.070541,111.328621 215.885666,124.205299 
	C227.864258,141.702972 228.281845,161.367371 223.671921,181.298233 
	C222.880585,184.719467 220.289474,188.135803 217.658859,190.639221 
	C211.092133,196.888458 203.189072,194.825211 201.136734,186.092361 
	C199.615005,179.617325 199.345871,172.788147 199.064972,166.093811 
	C198.494888,152.508347 198.296890,138.907288 197.929443,125.313110 
	C197.921051,125.003128 197.721054,124.698326 197.394043,123.790215 
	C190.307861,125.321762 183.145401,126.869789 176.080856,128.396652 
	C176.080856,131.931778 176.080856,134.928925 175.691574,138.297516 
	C175.563248,138.422806 175.434921,138.548111 174.803192,138.229874 
	C171.034744,133.686600 166.023224,131.141922 160.305298,131.095932 
	C143.393616,130.959946 130.419800,138.279846 121.650429,152.809387 
	C113.888374,165.669968 112.090210,179.761841 114.149689,194.293716 
	C115.238556,201.976852 117.693283,209.484985 123.063210,215.536713 
	C132.932159,226.658630 145.156815,227.200867 158.337402,223.248245 
	C169.862015,219.792236 178.053238,212.264236 184.057266,201.394058 
	C190.935257,211.845779 200.277435,214.513214 211.576462,211.989700 
	C226.641525,208.625122 236.498199,199.387955 242.009064,185.237030 
	C247.832535,170.283386 248.201141,154.879425 244.895340,139.409027 
	C242.096405,126.310684 236.513458,114.317886 227.054947,104.690277 
	C214.194778,91.600182 198.038239,85.452896 179.896439,85.143806 
	C171.229507,84.996147 162.536514,86.377769 154.251083,86.391075 
z"/>
<path fill="#FF6914" opacity="1.000000" stroke="none" 
	d="
M153.855331,87.066727 
	C162.536514,86.377769 171.229507,84.996147 179.896439,85.143806 
	C198.038239,85.452896 214.194778,91.600182 227.054947,104.690277 
	C236.513458,114.317886 242.096405,126.310684 244.895340,139.409027 
	C248.201141,154.879425 247.832535,170.283386 242.009064,185.237030 
	C236.498199,199.387955 226.641525,208.625122 211.576462,211.989700 
	C200.277435,214.513214 190.935257,211.845779 184.057266,201.394058 
	C178.053238,212.264236 169.862015,219.792236 158.337402,223.248245 
	C145.156815,227.200867 132.932159,226.658630 123.063210,215.536713 
	C117.693283,209.484985 115.238556,201.976852 114.149689,194.293716 
	C112.090210,179.761841 113.888374,165.669968 121.650429,152.809387 
	C130.419800,138.279846 143.393616,130.959946 160.305298,131.095932 
	C166.023224,131.141922 171.034744,133.686600 175.245667,138.671143 
	C176.027771,139.281067 176.367386,139.449738 176.707001,139.618408 
	C176.498276,139.054291 176.289566,138.490189 176.080856,137.926071 
	C176.080856,134.928925 176.080856,131.931778 176.080856,128.396652 
	C183.145401,126.869789 190.307861,125.321762 197.394043,123.790215 
	C197.721054,124.698326 197.921051,125.003128 197.929443,125.313110 
	C198.296890,138.907288 198.494888,152.508347 199.064972,166.093811 
	C199.345871,172.788147 199.615005,179.617325 201.136734,186.092361 
	C203.189072,194.825211 211.092133,196.888458 217.658859,190.639221 
	C220.289474,188.135803 222.880585,184.719467 223.671921,181.298233 
	C228.281845,161.367371 227.864258,141.702972 215.885666,124.205299 
	C207.070541,111.328621 194.130020,104.703758 178.376114,104.000198 
	C163.863495,103.352081 149.922974,106.112961 137.035645,112.605843 
	C118.701225,121.843079 105.575729,136.185333 98.003059,155.423904 
	C93.693893,166.371429 91.254044,177.743988 92.102386,189.462418 
	C93.333145,206.463211 96.649231,222.909393 109.863243,235.326736 
	C118.404045,243.352615 128.776352,247.496170 140.374908,247.928619 
	C159.753845,248.651184 177.476624,243.280945 193.720657,231.943863 
	C196.032990,236.397552 198.129868,240.788666 200.562286,244.985306 
	C201.959473,247.395889 201.315857,248.609909 199.178101,250.003738 
	C186.023972,258.580505 171.647461,263.755859 156.140854,266.028503 
	C141.766876,268.135223 127.736618,267.432526 114.041786,262.084198 
	C97.590874,255.659561 86.036705,244.007462 79.201836,228.121414 
	C72.266281,212.001373 70.527863,194.681641 72.172005,177.364532 
	C73.922745,158.924713 80.327759,141.788208 91.659378,126.999084 
	C104.812302,109.832932 121.548676,97.316299 142.459991,90.885078 
	C146.173721,89.742928 149.938858,88.767929 153.778595,87.347176 
	C153.876953,86.978607 153.855331,87.066719 153.855331,87.066727 
M150.570679,152.872818 
	C139.210312,157.395981 134.480057,175.592300 136.235535,185.250290 
	C137.269531,190.938828 138.513321,196.876541 143.475098,200.746521 
	C151.602234,207.085403 161.957245,203.556030 168.097168,198.263168 
	C177.428482,190.219177 179.612762,179.254608 177.664810,167.796310 
	C176.279465,159.647461 172.728989,151.787994 162.953033,150.636322 
	C159.142273,150.187393 155.098175,151.719269 150.570679,152.872818 
z"/>
<path fill="#00AD84" opacity="1.000000" stroke="none" 
	d="
M153.921967,86.984177 
	C140.838928,87.975403 127.712189,88.979309 114.581383,89.927010 
	C112.618164,90.068695 110.635910,89.946724 108.801659,89.946724 
	C105.535316,82.569786 112.006981,71.547882 119.961449,67.488152 
	C130.340759,62.190861 140.351517,64.882385 150.979507,76.435524 
	C149.961899,64.464912 148.988220,53.011131 148.020966,41.633030 
	C159.846802,38.974754 170.841599,47.956276 172.764984,58.566685 
	C175.370499,72.940079 167.676208,83.796745 154.053207,86.728897 
	C153.855331,87.066719 153.876953,86.978607 153.921967,86.984177 
z"/>
<path fill="#000000" opacity="1.000000" stroke="none" 
	d="
M150.865509,152.610870 
	C155.098175,151.719269 159.142273,150.187393 162.953033,150.636322 
	C172.728989,151.787994 176.279465,159.647461 177.664810,167.796310 
	C179.612762,179.254608 177.428482,190.219177 168.097168,198.263168 
	C161.957245,203.556030 151.602234,207.085403 143.475098,200.746521 
	C138.513321,196.876541 137.269531,190.938828 136.235535,185.250290 
	C134.480057,175.592300 139.210312,157.395981 150.865509,152.610870 
z"/>
<path fill="#000000" opacity="1.000000" stroke="none" 
	d="
M175.886215,138.111786 
	C176.289566,138.490189 176.498276,139.054291 176.707001,139.618408 
	C176.367386,139.449738 176.027771,139.281067 175.497375,138.892914 
	C175.434921,138.548111 175.563248,138.422806 175.886215,138.111786 
z"/>
</svg>